<mxfile host="app.diagrams.net" modified="2023-06-05T14:52:57.312Z" agent="Mozilla/5.0 (Windows NT 10.0; Win64; x64) AppleWebKit/537.36 (KHTML, like Gecko) Chrome/113.0.0.0 Safari/537.36" etag="z_RTpm3IIaM-ifvPxock" version="21.3.7" type="google">
  <diagram name="Trang-1" id="Q92Dcv0NKtZqutTblV-u">
    <mxGraphModel grid="0" page="0" gridSize="10" guides="1" tooltips="1" connect="1" arrows="1" fold="1" pageScale="1" pageWidth="1169" pageHeight="827" math="0" shadow="0">
      <root>
        <mxCell id="0" />
        <mxCell id="1" parent="0" />
        <mxCell id="j1G9MM0P4JPAAJjVgByU-5" value="" style="rounded=0;whiteSpace=wrap;html=1;" vertex="1" parent="1">
          <mxGeometry x="-1773" y="-91" width="1696" height="614" as="geometry" />
        </mxCell>
        <mxCell id="j1G9MM0P4JPAAJjVgByU-31" value="" style="edgeStyle=orthogonalEdgeStyle;rounded=0;orthogonalLoop=1;jettySize=auto;html=1;" edge="1" parent="1" source="j1G9MM0P4JPAAJjVgByU-32" target="j1G9MM0P4JPAAJjVgByU-34">
          <mxGeometry relative="1" as="geometry" />
        </mxCell>
        <mxCell id="j1G9MM0P4JPAAJjVgByU-32" value="&lt;font style=&quot;font-size: 24px;&quot; face=&quot;Times New Roman&quot;&gt;Xuất trình thẻ thư viện và tài liệu được trả&lt;/font&gt;" style="rounded=0;whiteSpace=wrap;html=1;" vertex="1" parent="1">
          <mxGeometry x="-1512" y="81" width="240" height="120" as="geometry" />
        </mxCell>
        <mxCell id="j1G9MM0P4JPAAJjVgByU-33" value="" style="edgeStyle=orthogonalEdgeStyle;rounded=0;orthogonalLoop=1;jettySize=auto;html=1;" edge="1" parent="1" source="j1G9MM0P4JPAAJjVgByU-34" target="j1G9MM0P4JPAAJjVgByU-37">
          <mxGeometry relative="1" as="geometry" />
        </mxCell>
        <mxCell id="j1G9MM0P4JPAAJjVgByU-34" value="&lt;font style=&quot;font-size: 24px;&quot; face=&quot;Times New Roman&quot;&gt;Nhân viên kiểm tra tình trạng của tài liệu&lt;/font&gt;" style="whiteSpace=wrap;html=1;rounded=0;" vertex="1" parent="1">
          <mxGeometry x="-1192" y="81" width="240" height="120" as="geometry" />
        </mxCell>
        <mxCell id="j1G9MM0P4JPAAJjVgByU-35" value="" style="edgeStyle=orthogonalEdgeStyle;rounded=0;orthogonalLoop=1;jettySize=auto;html=1;" edge="1" parent="1" source="j1G9MM0P4JPAAJjVgByU-37" target="j1G9MM0P4JPAAJjVgByU-39">
          <mxGeometry relative="1" as="geometry" />
        </mxCell>
        <mxCell id="j1G9MM0P4JPAAJjVgByU-36" style="edgeStyle=orthogonalEdgeStyle;rounded=0;orthogonalLoop=1;jettySize=auto;html=1;entryX=1;entryY=0.5;entryDx=0;entryDy=0;" edge="1" parent="1" source="j1G9MM0P4JPAAJjVgByU-37" target="j1G9MM0P4JPAAJjVgByU-43">
          <mxGeometry relative="1" as="geometry">
            <Array as="points">
              <mxPoint x="-732" y="7" />
              <mxPoint x="-218" y="7" />
              <mxPoint x="-218" y="303" />
            </Array>
          </mxGeometry>
        </mxCell>
        <mxCell id="j1G9MM0P4JPAAJjVgByU-37" value="&lt;font face=&quot;Times New Roman&quot;&gt;&lt;span style=&quot;font-size: 24px;&quot;&gt;Tài liệu bị hỏng, &lt;br&gt;&amp;nbsp;rách, thiếu trang,..&lt;/span&gt;&lt;/font&gt;" style="rhombus;whiteSpace=wrap;html=1;" vertex="1" parent="1">
          <mxGeometry x="-872" y="71" width="280" height="140" as="geometry" />
        </mxCell>
        <mxCell id="j1G9MM0P4JPAAJjVgByU-38" style="edgeStyle=orthogonalEdgeStyle;rounded=0;orthogonalLoop=1;jettySize=auto;html=1;entryX=0.5;entryY=0;entryDx=0;entryDy=0;" edge="1" parent="1">
          <mxGeometry relative="1" as="geometry">
            <mxPoint x="-399" y="201" as="sourcePoint" />
            <mxPoint x="-399" y="243" as="targetPoint" />
          </mxGeometry>
        </mxCell>
        <mxCell id="j1G9MM0P4JPAAJjVgByU-39" value="&lt;font face=&quot;Times New Roman&quot;&gt;&lt;span style=&quot;font-size: 24px;&quot;&gt;Phạt khoản phí tương ứng với tài liệu&lt;/span&gt;&lt;/font&gt;" style="rounded=0;whiteSpace=wrap;html=1;" vertex="1" parent="1">
          <mxGeometry x="-520" y="81" width="240" height="120" as="geometry" />
        </mxCell>
        <mxCell id="j1G9MM0P4JPAAJjVgByU-40" value="&lt;font face=&quot;Times New Roman&quot; style=&quot;font-size: 24px;&quot;&gt;Có&lt;/font&gt;" style="text;html=1;strokeColor=none;fillColor=none;align=center;verticalAlign=middle;whiteSpace=wrap;rounded=0;" vertex="1" parent="1">
          <mxGeometry x="-592" y="111" width="60" height="30" as="geometry" />
        </mxCell>
        <mxCell id="j1G9MM0P4JPAAJjVgByU-41" value="&lt;font face=&quot;Times New Roman&quot; style=&quot;font-size: 24px;&quot;&gt;Không&lt;/font&gt;" style="text;html=1;strokeColor=none;fillColor=none;align=center;verticalAlign=middle;whiteSpace=wrap;rounded=0;" vertex="1" parent="1">
          <mxGeometry x="-716" y="19" width="60" height="30" as="geometry" />
        </mxCell>
        <mxCell id="j1G9MM0P4JPAAJjVgByU-42" value="" style="edgeStyle=orthogonalEdgeStyle;rounded=0;orthogonalLoop=1;jettySize=auto;html=1;" edge="1" parent="1" source="j1G9MM0P4JPAAJjVgByU-43" target="j1G9MM0P4JPAAJjVgByU-46">
          <mxGeometry relative="1" as="geometry" />
        </mxCell>
        <mxCell id="j1G9MM0P4JPAAJjVgByU-43" value="&lt;font style=&quot;font-size: 24px;&quot; face=&quot;Times New Roman&quot;&gt;Nhân viên kiểm tra hạn trả tài liệu&lt;/font&gt;" style="rounded=0;whiteSpace=wrap;html=1;" vertex="1" parent="1">
          <mxGeometry x="-520" y="243" width="240" height="120" as="geometry" />
        </mxCell>
        <mxCell id="j1G9MM0P4JPAAJjVgByU-44" value="" style="edgeStyle=orthogonalEdgeStyle;rounded=0;orthogonalLoop=1;jettySize=auto;html=1;" edge="1" parent="1" source="j1G9MM0P4JPAAJjVgByU-46" target="j1G9MM0P4JPAAJjVgByU-48">
          <mxGeometry relative="1" as="geometry" />
        </mxCell>
        <mxCell id="j1G9MM0P4JPAAJjVgByU-45" style="edgeStyle=orthogonalEdgeStyle;rounded=0;orthogonalLoop=1;jettySize=auto;html=1;exitX=0.5;exitY=1;exitDx=0;exitDy=0;entryX=0.5;entryY=1;entryDx=0;entryDy=0;" edge="1" parent="1" source="j1G9MM0P4JPAAJjVgByU-46" target="j1G9MM0P4JPAAJjVgByU-50">
          <mxGeometry relative="1" as="geometry">
            <Array as="points">
              <mxPoint x="-707" y="421" />
              <mxPoint x="-1301" y="421" />
            </Array>
          </mxGeometry>
        </mxCell>
        <mxCell id="j1G9MM0P4JPAAJjVgByU-46" value="&lt;font face=&quot;Times New Roman&quot;&gt;&lt;span style=&quot;font-size: 24px;&quot;&gt;Trả tài liệu trễ hạn&lt;/span&gt;&lt;/font&gt;" style="rhombus;whiteSpace=wrap;html=1;" vertex="1" parent="1">
          <mxGeometry x="-827" y="233" width="240" height="140" as="geometry" />
        </mxCell>
        <mxCell id="j1G9MM0P4JPAAJjVgByU-47" value="" style="edgeStyle=orthogonalEdgeStyle;rounded=0;orthogonalLoop=1;jettySize=auto;html=1;" edge="1" parent="1" source="j1G9MM0P4JPAAJjVgByU-48" target="j1G9MM0P4JPAAJjVgByU-50">
          <mxGeometry relative="1" as="geometry" />
        </mxCell>
        <mxCell id="j1G9MM0P4JPAAJjVgByU-48" value="&lt;font face=&quot;Times New Roman&quot;&gt;&lt;span style=&quot;font-size: 24px;&quot;&gt;Phạt khoản phí tương ứng với thời gian trễ&lt;/span&gt;&lt;/font&gt;" style="rounded=0;whiteSpace=wrap;html=1;" vertex="1" parent="1">
          <mxGeometry x="-1131" y="243" width="240" height="120" as="geometry" />
        </mxCell>
        <mxCell id="j1G9MM0P4JPAAJjVgByU-49" style="edgeStyle=orthogonalEdgeStyle;rounded=0;orthogonalLoop=1;jettySize=auto;html=1;entryX=1;entryY=0.5;entryDx=0;entryDy=0;" edge="1" parent="1" source="j1G9MM0P4JPAAJjVgByU-50" target="j1G9MM0P4JPAAJjVgByU-55">
          <mxGeometry relative="1" as="geometry" />
        </mxCell>
        <mxCell id="j1G9MM0P4JPAAJjVgByU-50" value="&lt;font style=&quot;font-size: 24px;&quot; face=&quot;Times New Roman&quot;&gt;Nhân viên xác nhận đã trả tài liệu vào hệ thống&lt;/font&gt;" style="rounded=0;whiteSpace=wrap;html=1;" vertex="1" parent="1">
          <mxGeometry x="-1421" y="243" width="240" height="120" as="geometry" />
        </mxCell>
        <mxCell id="j1G9MM0P4JPAAJjVgByU-51" value="&lt;font face=&quot;Times New Roman&quot; style=&quot;font-size: 24px;&quot;&gt;Có&lt;/font&gt;" style="text;html=1;strokeColor=none;fillColor=none;align=center;verticalAlign=middle;whiteSpace=wrap;rounded=0;" vertex="1" parent="1">
          <mxGeometry x="-887" y="269" width="60" height="30" as="geometry" />
        </mxCell>
        <mxCell id="j1G9MM0P4JPAAJjVgByU-52" value="&lt;font face=&quot;Times New Roman&quot; style=&quot;font-size: 24px;&quot;&gt;Không&lt;/font&gt;" style="text;html=1;strokeColor=none;fillColor=none;align=center;verticalAlign=middle;whiteSpace=wrap;rounded=0;" vertex="1" parent="1">
          <mxGeometry x="-809" y="388" width="60" height="30" as="geometry" />
        </mxCell>
        <mxCell id="j1G9MM0P4JPAAJjVgByU-53" style="edgeStyle=orthogonalEdgeStyle;rounded=0;orthogonalLoop=1;jettySize=auto;html=1;exitX=1;exitY=0.5;exitDx=0;exitDy=0;entryX=0;entryY=0.5;entryDx=0;entryDy=0;" edge="1" parent="1" source="j1G9MM0P4JPAAJjVgByU-54" target="j1G9MM0P4JPAAJjVgByU-32">
          <mxGeometry relative="1" as="geometry" />
        </mxCell>
        <mxCell id="j1G9MM0P4JPAAJjVgByU-54" value="&lt;font style=&quot;font-size: 24px;&quot; face=&quot;Times New Roman&quot;&gt;Bắt đầu&lt;/font&gt;" style="ellipse;whiteSpace=wrap;html=1;" vertex="1" parent="1">
          <mxGeometry x="-1696" y="94" width="130" height="94" as="geometry" />
        </mxCell>
        <mxCell id="j1G9MM0P4JPAAJjVgByU-55" value="&lt;font face=&quot;Times New Roman&quot;&gt;&lt;span style=&quot;font-size: 24px;&quot;&gt;Kết thúc&lt;/span&gt;&lt;/font&gt;" style="ellipse;whiteSpace=wrap;html=1;" vertex="1" parent="1">
          <mxGeometry x="-1601" y="256" width="130" height="94" as="geometry" />
        </mxCell>
      </root>
    </mxGraphModel>
  </diagram>
</mxfile>
